<?xml version="1.0" encoding="UTF-8"?>
<svg id="Layer_1" data-name="Layer 1" xmlns="http://www.w3.org/2000/svg" version="1.1" viewBox="0 0 48 48">
  <defs>
    <style>
      .cls-1 {
        fill: #f4f4f4;
      }

      .cls-1, .cls-2 {
        stroke-width: 0px;
      }

      .cls-2 {
        fill: #04615c;
      }
    </style>
  </defs>
  <path class="cls-1" d="M24,0h0c13.3,0,24,10.7,24,24h0c0,13.3-10.7,24-24,24h0C10.7,48,0,37.3,0,24h0C0,10.7,10.7,0,24,0Z"/>
  <path class="cls-2" d="M11.8,12.9v22.3h1.7v-4.1h.6v4.1l7-1.5v-17l-7-1.5v2.6h-.6v-3.3h21.1v3.3h-.6v-2.6l-7,1.5v17l7,1.5v-4.1h.6v4.1h1.7V12.9H11.8ZM19.8,24.1c.2,0,.5.2.5.5s-.2.5-.5.5-.5-.2-.5-.5.2-.5.5-.5h0ZM14,20.2v8.6h-.6v-8.6h.6ZM28.1,25.2c-.2,0-.5-.2-.5-.5s.2-.5.5-.5.5.2.5.5-.2.5-.5.5ZM34.5,28.8h-.6v-8.6h.6v8.6Z"/>
</svg>