<?xml version="1.0" encoding="UTF-8"?>
<svg id="Layer_1" data-name="Layer 1" xmlns="http://www.w3.org/2000/svg" version="1.1" viewBox="0 0 48 48">
  <defs>
    <style>
      .cls-1 {
        fill: #f4f4f4;
      }

      .cls-1, .cls-2 {
        stroke-width: 0px;
      }

      .cls-2 {
        fill: #04615c;
      }
    </style>
  </defs>
  <path class="cls-1" d="M24,0h0c13.3,0,24,10.7,24,24h0c0,13.3-10.7,24-24,24h0C10.7,48,0,37.3,0,24h0C0,10.7,10.7,0,24,0Z"/>
  <path class="cls-2" d="M24.5,12.7c-6.5,0-11.8,5.3-11.8,11.8s5.3,11.8,11.8,11.8,11.8-5.3,11.8-11.8-5.3-11.8-11.8-11.8ZM27,31c-.6.2-1.1.4-1.5.5s-.8.2-1.3.2-1.3-.2-1.7-.5-.6-.8-.6-1.4v-.7c0-.2,0-.5.1-.8l.8-2.7c0-.3.1-.5.2-.7v-.6c0-.3,0-.6-.2-.7-.1-.1-.4-.2-.8-.2h-.6c-.2,0-.4.1-.5.2l.2-.8c.5-.2,1-.4,1.4-.5.5-.1.9-.2,1.3-.2.7,0,1.3.2,1.7.5.4.4.6.8.6,1.4v.6c0,.3,0,.6-.2.8l-.8,2.7c0,.2-.1.5-.2.7v.6c0,.4,0,.6.2.7s.4.2.8.2h.6c.2,0,.4-.1.5-.2l-.2.8h.2ZM26.8,20.1c-.4.3-.8.5-1.3.5s-.9-.2-1.3-.5c-.4-.3-.5-.7-.5-1.2s.2-.9.5-1.2c.4-.3.8-.5,1.3-.5s.9.2,1.3.5c.4.3.5.7.5,1.2s-.2.9-.5,1.2Z"/>
</svg>