<svg width="48" height="48" viewBox="0 0 48 48" fill="none" xmlns="http://www.w3.org/2000/svg">
<rect width="48" height="48" rx="24" fill="#F4F4F4"/>
<path d="M33.09 18.98C32.24 18.04 30.82 17.57 28.76 17.57H28.52V17.53C28.52 15.85 28.52 13.77 24.76 13.77H23.24C19.48 13.77 19.48 15.86 19.48 17.53V17.58H19.24C17.17 17.58 15.76 18.05 14.91 18.99C13.92 20.09 13.95 21.57 14.05 22.58L14.06 22.65L14.1375 23.4633C14.1517 23.6131 14.2324 23.7483 14.3583 23.8307C14.5981 23.9877 14.9994 24.2464 15.24 24.38C15.38 24.47 15.53 24.55 15.68 24.63C17.39 25.57 19.27 26.2 21.18 26.51C21.27 27.45 21.68 28.55 23.87 28.55C26.06 28.55 26.49 27.46 26.56 26.49C28.6 26.16 30.57 25.45 32.35 24.41C32.41 24.38 32.45 24.35 32.5 24.32C32.8967 24.0958 33.3083 23.8195 33.6835 23.5489C33.7965 23.4673 33.8688 23.3413 33.8841 23.2027L33.9 23.06L33.95 22.59C33.96 22.53 33.96 22.48 33.97 22.41C34.05 21.4 34.03 20.02 33.09 18.98ZM25.09 25.83C25.09 26.89 25.09 27.05 23.86 27.05C22.63 27.05 22.63 26.86 22.63 25.84V24.58H25.09V25.83ZM20.91 17.57V17.53C20.91 15.83 20.91 15.2 23.24 15.2H24.76C27.09 15.2 27.09 15.84 27.09 17.53V17.58H20.91V17.57Z" fill="#04615C"/>
<path d="M32.8735 25.7342C33.2271 25.5659 33.6343 25.8462 33.5989 26.2362L33.24 30.19C33.03 32.19 32.21 34.23 27.81 34.23H20.19C15.79 34.23 14.97 32.19 14.76 30.2L14.4193 26.4522C14.3842 26.0667 14.7822 25.7867 15.1348 25.9463C16.2743 26.4618 18.3774 27.3764 19.6766 27.7167C19.8409 27.7597 19.9738 27.8773 20.0457 28.0312C20.6527 29.3293 21.9691 30.02 23.87 30.02C25.7521 30.02 27.0852 29.3027 27.6941 28.0014C27.7662 27.8474 27.8992 27.7298 28.0636 27.6866C29.4432 27.3236 31.6818 26.3012 32.8735 25.7342Z" fill="#04615C"/>
</svg>
