<svg width="48" height="48" viewBox="0 0 48 48" fill="none" xmlns="http://www.w3.org/2000/svg">
<rect width="48" height="48" rx="24" fill="#F4F4F4"/>
<mask id="mask0_1_121" style="mask-type:alpha" maskUnits="userSpaceOnUse" x="12" y="12" width="24" height="24">
<rect x="12" y="12" width="24" height="24" fill="#D9D9D9"/>
</mask>
<g mask="url(#mask0_1_121)">
<path d="M20.2456 29.2544V17.3076H20.5619C20.5808 16.3518 20.9243 15.5398 21.5924 14.8717C22.2605 14.2036 23.063 13.8695 24 13.8695C24.9558 13.8695 25.7678 14.2036 26.4359 14.8717C27.104 15.5398 27.4381 16.3518 27.4381 17.3076H27.7543V29.2544H20.2456ZM22.5 17.3076H25.5C25.5 16.8742 25.3583 16.5159 25.075 16.2326C24.7917 15.9492 24.4333 15.8076 24 15.8076C23.5667 15.8076 23.2083 15.9492 22.925 16.2326C22.6417 16.5159 22.5 16.8742 22.5 17.3076ZM29.1554 29.2544V17.3076H29.8304C30.5688 17.3076 31.1951 17.5646 31.7092 18.0788C32.2234 18.5929 32.4804 19.2192 32.4804 19.9576V26.6043C32.4804 27.3427 32.2234 27.969 31.7092 28.4832C31.1951 28.9973 30.5688 29.2544 29.8304 29.2544H29.1554ZM18.1696 29.2544C17.4312 29.2544 16.8049 28.9973 16.2907 28.4832C15.7766 27.969 15.5195 27.3427 15.5195 26.6043V19.9576C15.5195 19.2192 15.7766 18.5929 16.2907 18.0788C16.8049 17.5646 17.4312 17.3076 18.1696 17.3076H18.8445V29.2544H18.1696ZM13.5619 33.9044V31.2544H34.4381V33.9044H13.5619Z" fill="#04615C"/>
</g>
</svg>
