<svg width="48" height="48" viewBox="0 0 48 48" fill="none" xmlns="http://www.w3.org/2000/svg">
<rect width="48" height="48" rx="24" fill="#F4F4F4"/>
<mask id="mask0_1_96" style="mask-type:alpha" maskUnits="userSpaceOnUse" x="12" y="12" width="24" height="24">
<rect x="12" y="12" width="24" height="24" fill="#D9D9D9"/>
</mask>
<g mask="url(#mask0_1_96)">
<path d="M12.8147 27C12.8147 25.1833 13.573 23.7292 15.0897 22.6375C16.6063 21.5458 18.348 21 20.3147 21C22.2813 21 24.023 21.5458 25.5397 22.6375C27.0563 23.7292 27.8147 25.1833 27.8147 27H12.8147ZM12.8147 31.0897V28.9103H27.8147V31.0897H12.8147ZM13.9522 35.1853C13.633 35.1853 13.3636 35.0755 13.144 34.856C12.9245 34.6364 12.8147 34.367 12.8147 34.0478V33H27.8147V34.0478C27.8147 34.367 27.7049 34.6364 27.4853 34.856C27.2658 35.0755 26.9964 35.1853 26.6772 35.1853H13.9522ZM29.8147 35.1853V27C29.8147 25.1159 29.1737 23.4833 27.8916 22.1019C26.6095 20.7206 25.0348 19.7986 23.1674 19.3359L22.8745 16.8147H27.8804V12.8147H30.0658V16.8147H35.1853L33.5484 33.1402C33.4904 33.7246 33.248 34.2116 32.8212 34.6011C32.3944 34.9906 31.8868 35.1854 31.2984 35.1854L29.8147 35.1853Z" fill="#04615C"/>
</g>
</svg>
