<?xml version="1.0" encoding="UTF-8"?>
<svg id="Layer_1" data-name="Layer 1" xmlns="http://www.w3.org/2000/svg" version="1.1" viewBox="0 0 48 48">
  <defs>
    <style>
      .cls-1 {
        fill: #f4f4f4;
      }

      .cls-1, .cls-2 {
        stroke-width: 0px;
      }

      .cls-2 {
        fill: #04615c;
      }
    </style>
  </defs>
  <path class="cls-1" d="M24,0h0c13.3,0,24,10.7,24,24h0c0,13.3-10.7,24-24,24h0C10.7,48,0,37.3,0,24h0C0,10.7,10.7,0,24,0Z"/>
  <path class="cls-2" d="M33.9,22.9c0-.1-.1-.2-.2-.3l-2.5-2.5c-.3-.3-.8-.3-1.2,0-.3.3-.3.8,0,1.2l1.1,1.1h-4.6c-.5,0-.8.4-.8.8s.4.8.8.8h4.6l-1.1,1.1c-.3.3-.3.8,0,1.2.2.2.4.2.6.2s.4,0,.6-.2l2.5-2.5c0,0,.1-.2.2-.3,0-.2,0-.4,0-.6h0Z"/>
  <path class="cls-2" d="M28.1,25.7c-.5,0-.8.4-.8.8v4.1h-3.3v-13.2c0-.4-.2-.7-.6-.8l-2.9-.9h6.8v4.1c0,.5.4.8.8.8s.8-.4.8-.8v-5c0-.5-.4-.8-.8-.8h-13.2s0,0,0,0c0,0,0,0-.1,0,0,0-.2,0-.2.1,0,0,0,0,0,0,0,0,0,0,0,0,0,0-.2.2-.2.3,0,0,0,0,0,0,0,0,0,.1,0,.2,0,0,0,0,0,0s0,0,0,0v16.5c0,.4.3.7.7.8l8.3,1.7c0,0,.1,0,.2,0,.2,0,.4,0,.5-.2.2-.2.3-.4.3-.6v-.8h4.1c.5,0,.8-.4.8-.8v-5c0-.5-.4-.8-.8-.8h0Z"/>
</svg>