<svg width="48" height="48" viewBox="0 0 48 48" fill="none" xmlns="http://www.w3.org/2000/svg">
<rect width="48" height="48" rx="24" fill="#F4F4F4"/>
<path d="M14.77 22C14.34 22 14 21.66 14 21.23V18.92C14 16.21 16.21 14 18.92 14H21.23C21.66 14 22 14.34 22 14.77C22 15.2 21.66 15.54 21.23 15.54H18.92C17.05 15.54 15.54 17.06 15.54 18.92V21.23C15.54 21.66 15.19 22 14.77 22Z" fill="#04615C"/>
<path d="M33.23 22C32.81 22 32.46 21.66 32.46 21.23V18.92C32.46 17.05 30.94 15.54 29.08 15.54H26.77C26.34 15.54 26 15.19 26 14.77C26 14.35 26.34 14 26.77 14H29.08C31.79 14 34 16.21 34 18.92V21.23C34 21.66 33.66 22 33.23 22Z" fill="#04615C"/>
<path d="M29.08 34H27.69C27.27 34 26.92 33.66 26.92 33.23C26.92 32.81 27.26 32.46 27.69 32.46H29.08C30.95 32.46 32.46 30.94 32.46 29.08V27.7C32.46 27.28 32.8 26.93 33.23 26.93C33.65 26.93 34 27.27 34 27.7V29.08C34 31.79 31.79 34 29.08 34Z" fill="#04615C"/>
<path d="M21.23 34H18.92C16.21 34 14 31.79 14 29.08V26.77C14 26.34 14.34 26 14.77 26C15.2 26 15.54 26.34 15.54 26.77V29.08C15.54 30.95 17.06 32.46 18.92 32.46H21.23C21.65 32.46 22 32.8 22 33.23C22 33.66 21.66 34 21.23 34Z" fill="#04615C"/>
<path d="M30.46 23.23H29.1H18.9H17.54C17.11 23.23 16.77 23.58 16.77 24C16.77 24.42 17.11 24.77 17.54 24.77H18.9H29.1H30.46C30.89 24.77 31.23 24.42 31.23 24C31.23 23.58 30.89 23.23 30.46 23.23Z" fill="#04615C"/>
<path d="M18.9 25.94V26.27C18.9 27.93 20.24 29.27 21.9 29.27H26.1C27.76 29.27 29.1 27.93 29.1 26.27V25.94C29.1 25.82 29.01 25.73 28.89 25.73H19.11C18.99 25.73 18.9 25.82 18.9 25.94Z" fill="#04615C"/>
<path d="M18.9 22.06V21.73C18.9 20.07 20.24 18.73 21.9 18.73H26.1C27.76 18.73 29.1 20.07 29.1 21.73V22.06C29.1 22.18 29.01 22.27 28.89 22.27H19.11C18.99 22.27 18.9 22.18 18.9 22.06Z" fill="#04615C"/>
</svg>
