<svg width="195" height="50" viewBox="0 0 195 50" fill="none" xmlns="http://www.w3.org/2000/svg">
<g clip-path="url(#clip0_6526_104129)">
<path d="M11.8866 0.750977V12.6376H0L10.8947 0.750977H11.8866Z" fill="#3CBFB9"/>
<path d="M0 24.5241V12.6375H11.8866L0.991895 24.5241H0Z" fill="#005A54"/>
<path d="M37.168 40.8702C37.168 43.3782 38.7969 45.0394 41.0549 45.0394C41.8452 45.0394 42.4823 45.0394 43.458 44.9346C43.3935 46.3781 42.5468 47.1845 41.0226 47.1845C40.3694 47.1845 39.5227 47.0152 38.5873 46.8619L38.3776 47.9103L39.1598 48.9747C39.8292 49.1199 40.5146 49.2328 41.0872 49.2328C44.2322 49.2328 45.7966 47.3861 45.7966 44.7733V37.0075C44.7886 36.9269 43.6919 36.6204 41.2081 36.6204C38.7244 36.6204 37.1841 38.2978 37.168 40.8541M43.458 38.6687V42.9589C42.4984 43.1121 41.942 43.096 41.4259 43.096C40.2324 43.096 39.4582 42.1363 39.4582 40.9428C39.4582 39.5961 39.9985 38.572 41.5791 38.572C42.321 38.572 42.9258 38.6203 43.4661 38.6687" fill="#4C4E51"/>
<path d="M21.4506 36.8864H18.6604L16.0314 39.7815H15.5476V32.9995H14.2735L13.209 34.1608V35.6929V41.0556V44.9426H15.5476V41.9508H16.8379L18.9426 44.9426H21.6361L18.4023 40.2492L21.4506 36.8864Z" fill="#4C4E51"/>
<path d="M24.0644 32.8141C23.2257 32.8141 22.5645 33.4512 22.5645 34.314C22.5645 35.1769 23.2177 35.7736 24.0644 35.7736C24.9111 35.7736 25.5643 35.1527 25.5643 34.314C25.5643 33.4754 24.895 32.8141 24.0644 32.8141Z" fill="#4C4E51"/>
<path d="M22.8945 38.048V44.9428H25.2331V36.8867H23.959L22.8945 38.048Z" fill="#4C4E51"/>
<path d="M32.1671 36.6365C30.6188 36.6365 29.4817 36.7333 28.4414 36.8865L27.377 38.0478V44.9426H29.7156V38.8703C30.3849 38.8058 31.022 38.7494 31.6187 38.7494C32.5622 38.7494 33.2315 39.3864 33.2315 40.4106V44.9346H35.5702V39.7251C35.5702 37.8542 34.2073 36.6285 32.1751 36.6285" fill="#4C4E51"/>
<path d="M190.799 16.2422C190.799 16.2422 190.774 16.2422 190.758 16.2422C190.742 16.2422 190.734 16.2422 190.718 16.2422C188.258 16.2503 186.581 17.8066 186.508 20.1291V20.2743C186.508 21.0565 186.242 22.4194 184.468 22.4194H184.154C182.379 22.4194 182.113 21.0404 182.113 20.2582C182.113 17.7744 180.267 16.2422 177.509 16.2422C176.654 16.2422 175.63 16.3954 174.88 16.6373L171.678 17.6212V12.6536H170.42L169.356 13.8149V22.4274H167.558C165.783 22.4274 165.533 21.113 165.533 20.3227V12.6536H164.275L163.211 13.8149V20.4598C163.227 22.9355 164.929 24.5886 167.437 24.5886H177.597C178.952 24.5886 180.097 24.137 180.896 23.3629C181.638 24.137 182.71 24.5886 184.008 24.5886H184.605C185.863 24.5886 186.912 24.1693 187.653 23.4435C188.395 24.1693 189.46 24.5886 190.734 24.5886C192.661 24.5886 195 24.1128 195 24.1128V20.242C194.984 17.855 193.29 16.2583 190.799 16.2503M177.573 22.4194H171.67V19.6937L175.404 18.6856C176.146 18.5163 176.912 18.4195 177.452 18.4195C178.896 18.4195 179.783 19.1775 179.783 20.4033C179.783 21.6291 178.92 22.4274 177.573 22.4274M192.686 22.4194H190.871C189.097 22.4194 188.831 21.2178 188.831 20.492V20.3549C188.831 19.6453 189.097 18.476 190.758 18.4195C192.419 18.476 192.686 19.6453 192.686 20.3549V22.4194Z" fill="#4C4E51"/>
<path d="M157.808 28.4755C159.792 27.9916 161.01 26.3627 161.01 24.0321V16.2421H159.751L158.687 17.4034V24.524C158.687 24.7095 158.671 24.9031 158.598 25.0724C158.308 25.7256 157.582 26.1449 156.8 26.3143L156.074 26.4675L156.316 27.6046L157.808 28.4755Z" fill="#4C4E51"/>
<path d="M151.728 12.6456H150.47L149.414 13.8068V24.5886H151.728V12.6456Z" fill="#4C4E51"/>
<path d="M142.994 24.5886C145.502 24.5886 147.204 22.8226 147.22 20.2098V12.6536H145.962L144.897 13.8149V20.2017C144.897 21.0323 144.631 22.4274 142.857 22.4274H141.333V20.2501C141.317 17.8631 139.623 16.2664 137.131 16.2583C137.115 16.2583 137.107 16.2583 137.091 16.2583C137.075 16.2583 137.067 16.2583 137.051 16.2583C134.591 16.2583 132.914 17.8228 132.841 20.1453V20.2904C132.841 21.0726 132.575 22.4355 130.801 22.4355H130.478C128.704 22.4355 128.438 21.0565 128.438 20.2743V19.1775L128.43 12.6698H127.172L126.108 13.831V20.4194C126.108 21.6129 125.253 22.4435 123.906 22.4435H123.463C121.688 22.4435 121.422 21.0646 121.422 20.2823V19.1856L121.414 12.6778H120.156L119.092 13.8391V20.4275C119.092 21.621 118.237 22.4516 116.89 22.4516H112.31C111.06 22.4516 110.205 21.5726 110.205 20.5485C110.205 19.8066 110.431 18.8227 110.608 18.2986L110.81 17.7018L109.697 17.4599L108.205 18.4437C107.995 19.113 107.891 19.7824 107.891 20.4436C107.891 23 109.689 24.6128 112.479 24.6128H116.906C118.269 24.6128 119.406 24.1612 120.205 23.3951C120.947 24.1693 122.019 24.6209 123.317 24.6209H123.914C125.269 24.6209 126.414 24.1693 127.212 23.3951C127.954 24.1693 129.027 24.6209 130.325 24.6209H130.922C132.18 24.6209 133.228 24.2015 133.97 23.4838C134.712 24.2096 135.777 24.6209 137.051 24.6209H142.986L142.994 24.5886ZM139.01 22.4194H137.196C135.422 22.4194 135.156 21.2178 135.156 20.492V20.3549C135.156 19.6453 135.422 18.476 137.083 18.4195C138.744 18.476 139.01 19.6453 139.01 20.3549V22.4194Z" fill="#4C4E51"/>
<path d="M114.1 18.1214H116.559L117.011 17.6214V17.2827H115.003V16.6779C115.003 16.1376 115.35 15.7989 115.914 15.7989C116.35 15.7989 116.793 15.9441 116.793 15.9441L116.874 15.6537L116.535 15.0731C116.245 14.9763 116.229 14.9441 115.898 14.9441C114.817 14.9441 114.1 15.6376 114.1 16.6698V17.2827H113.156V17.6214L113.608 18.1214H114.1Z" fill="#4C4E51"/>
<path d="M97.0606 15.0164C97.8348 15.0164 98.4396 14.4197 98.4396 13.6536C98.4396 12.8875 97.8348 12.2746 97.0606 12.2746C96.2865 12.2746 95.6816 12.8794 95.6816 13.6536C95.6816 14.4277 96.2865 15.0164 97.0606 15.0164Z" fill="#4C4E51"/>
<path d="M79.3754 24.5886H81.9962C84.5042 24.5886 86.2057 22.9273 86.2219 20.4597V12.6536H84.9639L83.8994 13.8148V20.3226C83.8994 21.1048 83.6494 22.4274 81.8753 22.4274H78.7464C78.7948 22.2096 78.827 21.9838 78.827 21.75V21.629C78.827 15.1373 72.6337 16.2905 71.8999 16.5405L71.0531 18.0001L71.2547 18.734C71.2547 18.734 76.5529 16.855 76.5529 21.6451V22.4274H70.1016V23.3467L71.2386 24.5966H75.8916C76.561 24.5966 77.1738 24.387 77.6658 24.0321C78.1496 24.387 78.7383 24.5966 79.3834 24.5966" fill="#4C4E51"/>
<path d="M95.3835 16.6212C94.6013 16.9034 94.5932 17.0486 93.9965 17.5324L93.6981 19.2017L94.1336 19.8226C94.1336 19.8226 94.9803 18.9759 96.0206 18.5969C97.3512 18.113 98.9721 18.6049 99.4318 19.8791L100.383 22.4193H92.6982C90.924 22.4193 90.6741 21.1048 90.6741 20.3145V12.6455H89.416L88.3516 13.8068V20.4516C88.3677 22.9273 90.0692 24.5805 92.5772 24.5805H101.722L102.803 23.5886V22.387L101.617 19.1291C100.73 16.7018 97.9237 15.6857 95.3835 16.6131" fill="#4C4E51"/>
<path d="M67.2943 36.6365C66.5524 36.6365 65.6814 36.7171 64.8186 36.8381V33.0076H63.5525L62.4961 34.1607V44.9506H64.8186V38.967C65.5121 38.846 66.1492 38.7654 66.7379 38.7654C67.6652 38.7654 68.3346 39.4025 68.3346 40.4266V44.9506H70.6732V39.7412C70.6732 37.8703 69.3103 36.6445 67.2943 36.6445" fill="#4C4E51"/>
<path d="M88.7617 32.8141C87.923 32.8141 87.2617 33.4512 87.2617 34.314C87.2617 35.1769 87.9149 35.7736 88.7617 35.7736C89.6084 35.7736 90.2616 35.1527 90.2616 34.314C90.2616 33.4754 89.5923 32.8141 88.7617 32.8141Z" fill="#4C4E51"/>
<path d="M87.5938 38.048V44.9428H89.9324V36.8867H88.6582L87.5938 38.048Z" fill="#4C4E51"/>
<path d="M60.9896 36.8864H58.1994L55.5786 39.7815H55.0867V32.9995H53.8125L52.748 34.1608V35.6929V41.0556V44.9426H55.0867V41.9508H56.385L58.4897 44.9426H61.1751L57.9494 40.2492L60.9896 36.8864Z" fill="#4C4E51"/>
<path d="M83.1094 34.1608V44.9426H85.448V32.9995H84.1738L83.1094 34.1608Z" fill="#4C4E51"/>
<path d="M97.844 34.1608V36.8219C97.2876 36.7171 96.4005 36.6365 95.7796 36.6365C92.9732 36.6365 91.5943 38.3138 91.5781 40.8379C91.5781 43.6442 93.2958 45.128 95.4489 45.128C96.6586 45.128 97.6505 45.1442 100.191 44.8216V32.9995H98.9165L97.8521 34.1608H97.844ZM97.8521 43.112C96.8924 43.2088 96.2554 43.2491 95.9812 43.2491C94.5135 43.2491 93.8442 42.2894 93.8442 40.846C93.8442 39.5476 94.3845 38.5719 96.0941 38.5719C96.5457 38.5719 97.2714 38.6364 97.844 38.7573V43.112H97.8521Z" fill="#4C4E51"/>
<path d="M72.3203 40.8702V40.9589C72.3687 43.5153 73.8041 45.2007 76.3605 45.2007C78.0781 45.2007 79.0136 45.0636 80.949 44.8136V37.0317C79.0136 36.7817 78.0701 36.6446 76.3605 36.6446C73.8041 36.6446 72.3768 38.3219 72.3203 40.8783M78.6104 38.6687V43.1605C78.0701 43.2088 77.4653 43.2572 76.7314 43.2572C75.175 43.2572 74.6186 42.2411 74.6105 40.9105C74.6105 39.58 75.175 38.5639 76.7314 38.5639C77.4733 38.5639 78.0781 38.6123 78.6104 38.6606" fill="#4C4E51"/>
<path d="M176.832 36.5317C174.106 36.5317 172.275 38.2655 172.275 40.8541C172.275 43.4427 174.106 45.2411 176.832 45.2411C179.557 45.2411 181.356 43.475 181.356 40.8541C181.356 38.2333 179.541 36.5317 176.832 36.5317ZM176.832 43.1605C175.501 43.1605 174.598 42.2331 174.598 40.8541C174.598 39.4752 175.501 38.6204 176.832 38.6204C178.162 38.6204 179.049 39.5155 179.049 40.8541C179.049 42.1928 178.154 43.1605 176.832 43.1605Z" fill="#4C4E51"/>
<path d="M156.881 36.9832L155.816 38.1364V44.9345H158.155V39.0154C159.082 38.9348 160.034 38.9186 161.01 38.9186V36.6284C160.155 36.6284 159.131 36.7091 158.131 36.8139C157.695 36.8623 157.276 36.9187 156.873 36.9752" fill="#4C4E51"/>
<path d="M184.131 36.9832L183.066 38.1364V44.9345H185.405V39.0154C186.332 38.9348 187.292 38.9186 188.268 38.9186V36.6284C187.413 36.6284 186.389 36.7091 185.389 36.8139C184.953 36.8623 184.534 36.9187 184.131 36.9752" fill="#4C4E51"/>
<path d="M152.518 32.814C151.679 32.814 151.018 33.451 151.018 34.3139C151.018 35.1768 151.671 35.7735 152.518 35.7735C153.364 35.7735 154.017 35.1526 154.017 34.3139C154.017 33.4752 153.348 32.814 152.518 32.814Z" fill="#4C4E51"/>
<path d="M151.348 38.0478V44.9427H153.686V36.8866H152.412L151.348 38.0478Z" fill="#4C4E51"/>
<path d="M193.202 43.112C192.291 43.112 191.944 42.5878 191.944 41.7008V38.9267H194.484V36.6365H191.944V34.0156H190.67L189.605 35.1769V42.0717H189.614C189.662 44.0797 190.775 45.2006 192.694 45.2006C193.775 45.2006 194.194 45.12 195 44.9345L194.783 42.9991C194.129 43.0878 193.686 43.1201 193.202 43.1201" fill="#4C4E51"/>
<path d="M166.985 36.6365C165.735 36.6365 164.501 36.7575 163.469 36.8865H163.461L162.396 38.0478V48.8296H164.735V44.9426C165.711 45.0394 166.364 45.0394 167.138 45.0394C169.388 45.0394 171.025 43.3701 171.025 40.8702C170.961 38.3139 169.566 36.6285 166.985 36.6285M166.767 43.096C166.243 43.096 165.711 43.1121 164.735 42.9589V38.6687C165.275 38.6203 165.88 38.5639 166.622 38.5639C168.203 38.5639 168.759 39.588 168.759 40.9348C168.759 42.1283 167.969 43.0879 166.775 43.0879" fill="#4C4E51"/>
<path d="M140.615 40.8702V40.9589C140.664 43.5153 142.091 45.2007 144.647 45.2007C146.365 45.2007 147.3 45.0636 149.236 44.8136V37.0317C147.3 36.7817 146.357 36.6446 144.647 36.6446C142.091 36.6446 140.664 38.3219 140.615 40.8783M146.897 38.6687V43.1605C146.357 43.2088 145.752 43.2572 145.01 43.2572C143.454 43.2572 142.897 42.2411 142.889 40.9105C142.889 39.58 143.454 38.5639 145.01 38.5639C145.752 38.5639 146.357 38.6123 146.897 38.6606" fill="#4C4E51"/>
<path d="M127.77 36.3463H129.802L130.253 32.0239H127.77V36.3463Z" fill="#4C4E51"/>
<path d="M131.648 34.1608V44.9426H133.987V32.9995H132.713L131.648 34.1608Z" fill="#4C4E51"/>
<path d="M108.303 32.8141C107.464 32.8141 106.803 33.4512 106.803 34.314C106.803 35.1769 107.456 35.7736 108.303 35.7736C109.149 35.7736 109.803 35.1527 109.803 34.314C109.803 33.4754 109.133 32.8141 108.303 32.8141Z" fill="#4C4E51"/>
<path d="M107.133 38.0478V44.9427H109.471V36.8866H108.197L107.133 38.0478Z" fill="#4C4E51"/>
<path d="M116.407 36.6365C114.859 36.6365 113.722 36.7333 112.682 36.8865L111.617 38.0478V44.9426H113.956V38.8703C114.625 38.8058 115.27 38.7494 115.859 38.7494C116.802 38.7494 117.472 39.3864 117.472 40.4106V44.9346H119.81V39.7251C119.81 37.8542 118.448 36.6285 116.415 36.6285" fill="#4C4E51"/>
<path d="M125.155 43.1121C124.244 43.1121 123.897 42.5879 123.897 41.7009V38.9268H126.437V36.8946H123.897V34.0157H122.623L121.559 35.1769V42.0718H121.567C121.615 44.0798 122.728 45.2007 124.647 45.2007C125.728 45.2007 126.147 45.1201 126.954 44.9346L126.736 42.9992C126.083 43.0879 125.639 43.1201 125.155 43.1201" fill="#4C4E51"/>
<path d="M17.5073 31.0401C18.1444 30.9836 18.6847 30.4514 18.7573 29.8143C18.854 28.9595 18.2089 28.2579 17.3622 28.2579C16.5719 28.2579 15.959 28.8708 15.959 29.645C15.959 30.4837 16.6525 31.1207 17.5073 31.0401Z" fill="#4C4E51"/>
<path d="M20.5633 28.2579C19.773 28.2579 19.1602 28.8708 19.1602 29.645C19.1602 30.4837 19.8537 31.1207 20.7085 31.0401C21.3455 30.9836 21.8858 30.4514 21.9584 29.8143C22.0552 28.9595 21.4101 28.2579 20.5633 28.2579Z" fill="#4C4E51"/>
<path d="M30.6763 22.4114C29.015 22.3469 28.7731 21.0808 28.7731 20.3147V16.2907H25.7974C23.2169 16.2907 21.475 17.9438 21.475 20.6453V21.8791C21.475 23.8871 20.3541 25.0967 18.4832 25.0967C16.6123 25.0967 15.5075 23.9678 15.5075 21.8388C15.5075 21.113 15.6285 20.2824 15.8785 19.2905L16.0075 18.7906L14.8463 18.5728L13.4834 19.5486C13.2979 20.3308 13.2012 21.1453 13.2012 21.9436C13.2012 25.129 15.3301 27.266 18.4993 27.266C19.2171 27.266 19.9025 27.1612 20.5396 26.9515C20.9509 26.8225 21.3379 26.637 21.6928 26.4031C23.0556 25.5161 23.7975 23.9274 23.7975 22.2985V20.6776C23.7975 19.2663 24.6362 18.3873 25.991 18.3873H26.4506V20.4356C26.4668 22.9114 28.1683 24.5645 30.6763 24.5645H31.1924C33.7003 24.5645 35.4019 22.9033 35.418 20.4356V12.6295H34.16L33.0955 13.7908V20.2986C33.0955 21.0647 32.8536 22.3307 31.1924 22.3952H30.6763V22.4114Z" fill="#4C4E51"/>
<path d="M56.0394 24.5886H56.4668C58.9748 24.5886 60.6763 22.9273 60.6925 20.4597V12.6536H59.4345L58.37 13.8148V20.3226C58.37 21.1048 58.12 22.4274 56.3459 22.4274H55.4104C55.4588 22.2096 55.4911 21.9838 55.4911 21.75V21.629C55.4911 15.1373 49.2978 16.2905 48.5639 16.5405L47.7172 18.0001L47.9188 18.734C47.9188 18.734 53.217 16.855 53.217 21.6451V22.4274H46.7656V23.3467L47.9027 24.5966H52.5557C53.225 24.5966 53.8298 24.387 54.3298 24.0321C54.8137 24.387 55.4024 24.5966 56.0475 24.5966" fill="#4C4E51"/>
<path d="M65.2151 24.5886V12.6456H63.957L62.8926 13.8068V24.5886H65.2151Z" fill="#4C4E51"/>
<path d="M41.0956 16.2986C38.2247 16.2986 36.7974 17.9437 36.7812 20.5C36.7812 23.008 38.4263 24.5886 40.6843 24.5886C41.4746 24.5886 42.1117 24.5886 43.0874 24.4918C43.0229 25.9353 42.1601 26.2982 40.6359 26.2982C39.9747 26.2982 39.136 26.1288 38.2005 25.9756L37.9909 27.1449L38.7731 28.2094C39.4424 28.3545 40.1279 28.4674 40.7004 28.4674C43.8455 28.4674 45.4099 26.5401 45.4099 23.9354V20.4678C45.3777 17.9356 43.9745 16.2986 41.0956 16.2986ZM43.0874 22.2983C42.1278 22.4354 41.5552 22.4193 41.0391 22.4193C39.8456 22.4193 39.1037 21.5726 39.1037 20.5081C39.1037 19.3388 39.5956 18.4517 41.0956 18.4114C42.5794 18.4356 43.0632 19.2904 43.0874 20.4194V22.2983Z" fill="#4C4E51"/>
</g>
<defs>
<clipPath id="clip0_6526_104129">
<rect width="195" height="48.498" fill="white" transform="translate(0 0.750977)"/>
</clipPath>
</defs>
</svg>
