<?xml version="1.0" encoding="UTF-8"?>
<svg id="Layer_1" data-name="Layer 1" xmlns="http://www.w3.org/2000/svg" version="1.1" viewBox="0 0 48 48">
  <defs>
    <style>
      .cls-1 {
        fill: #f4f4f4;
      }

      .cls-1, .cls-2 {
        stroke-width: 0px;
      }

      .cls-2 {
        fill: #04615c;
        fill-rule: evenodd;
      }
    </style>
  </defs>
  <path class="cls-1" d="M24,0h0c13.3,0,24,10.7,24,24h0c0,13.3-10.7,24-24,24h0C10.7,48,0,37.3,0,24h0C0,10.7,10.7,0,24,0Z"/>
  <path class="cls-2" d="M13.8,29.1l2.3-1.4c1.1-.7,2.5-1.1,3.8-1,1.1,0,2.2,0,2.2,0,0,0,1.6-.3,2.8-.5.4,0,.7,0,1,.2s.5.5.5.9h0c0,.3-.1.5-.4.6-.7.2-1.9.7-2.7.9-1.1.3-3.4.5-3.4.5,0,0,2.6,0,4.1,0,.7,0,1.4-.1,2-.4,1.2-.6,3.3-1.6,4.7-2.2.7-.3,1.5,0,1.9.6,0,0,0,.1.1.2,0,.1,0,.2,0,.4,0,.1-.1.2-.2.3-1.1.6-4.1,2.4-6.2,3.6-1.3.7-2.7,1.1-4.2,1-1.2,0-2.7-.2-3.8-.3-.9,0-1.7,0-2.5.4l-.6.2.2.4c0,0,0,.2,0,.3,0,0-.1.2-.2.2l-1.4.5s0,0-.1,0h-.7c-.2,0-.4-.2-.4-.4v-5.9c0-.1,0-.3.2-.3.1,0,.3,0,.3,0l.5,1.1h0ZM14.6,32.9c.2,0,.4.2.4.4s-.2.4-.4.4-.4-.2-.4-.4.2-.4.4-.4ZM19.3,26c.2,0,.4,0,.7,0h2.1c0,0,2.8-.5,2.8-.5.5-.1,1.1,0,1.5.3.4.3.7.7.8,1.2,1.6-1.3,3-2.6,4.1-4,2.2-2.9,2.1-6.4,0-8.3-2.1-1.8-5.4-1.7-7.3.5-2-2.2-5.3-2.2-7.3-.5-1.9,1.6-2.2,4.6-.7,7.3h0s-.7,0-.7,0c-.2,0-.4.2-.4.4s.2.4.4.4h1.2l-.4-.7h2.3c.1,0,.2,0,.3.1l.3.3.9-1.7c0-.1.2-.2.3-.2s.2,0,.3.2l1,2.1,1.6-4.9c0-.1.2-.2.3-.2s.3,0,.3.2l1.7,4.1h1.9c.2,0,.4.2.4.4s-.2.4-.4.4h-2.2c-.1,0-.3,0-.3-.2l-1.4-3.4-1.6,4.8c0,.1-.2.2-.3.2s-.3,0-.3-.2l-1.1-2.3-.9,1.6c0,.1-.2.2-.3.2s-.2,0-.3-.1l-.5-.6h-1.7l.2.3c.8,1,1.7,2,2.8,3h0s0,0,0,0Z"/>
</svg>