<?xml version="1.0" encoding="UTF-8"?>
<svg id="Layer_1" data-name="Layer 1" xmlns="http://www.w3.org/2000/svg" version="1.1" viewBox="0 0 48 48">
  <defs>
    <style>
      .cls-1 {
        fill: #f4f4f4;
      }

      .cls-1, .cls-2, .cls-3 {
        stroke-width: 0px;
      }

      .cls-2 {
        fill-rule: evenodd;
      }

      .cls-2, .cls-3 {
        fill: #04615c;
      }
    </style>
  </defs>
  <path class="cls-1" d="M24,0h0c13.3,0,24,10.7,24,24h0c0,13.3-10.7,24-24,24h0C10.7,48,0,37.3,0,24h0C0,10.7,10.7,0,24,0Z"/>
  <g id="Layer_1-2" data-name="Layer 1-2" image-rendering="optimizeQuality" shape-rendering="geometricPrecision" text-rendering="geometricPrecision">
    <g id="Layer_1-2-2" data-name="Layer 1-2">
      <g id="_330422928" data-name=" 330422928">
        <path class="cls-2" d="M30.2,24.3v3.9s0,0,0,0c0,2.3-1.3,3.8-3.1,4.8-1.1.6-2.4,1-3.6,1.3.3,0,.7,0,1,0,1.7,0,3.2-.5,4.4-1.4,1.2-.9,2.1-2.1,2.6-3.8.2-.7.4-1.6.4-2.6,0-.7-.2-1.3-.6-1.7-.3-.3-.6-.5-1.1-.7Z"/>
        <g>
          <path class="cls-3" d="M25.5,11.4c-.3-.2-.6-.3-.9-.4-.6-.2-1.3-.2-1.9,0-1.3.3-2.5,1.2-3.1,2.6h0s-.3.7-.2,2.9h.4c0-2,1.8-2.6,3.3-3.2,1.3-.5,2.4-.9,2.4-1.9Z"/>
          <path class="cls-3" d="M25.6,12.8c.3.5.7,1.2,1,2,.2.5.3,1.1.3,1.7h.3c.3-2.2-.1-3.7-1-4.6h0c0,.4-.3.7-.6.9Z"/>
          <path class="cls-3" d="M27.2,17.3h0c0-.1-.6-.1-.6-.1-.2,0-.3-.2-.3-.4,0-.5,0-1.2-.3-1.7-.3-.8-.7-1.5-.9-1.9-.5.3-1,.5-1.6.7-1.4.5-3,1.1-2.9,2.8h0c0,.2-.2.4-.4.4h-.6c.1,1.3.6,2.4,1.3,3.3.7.8,1.6,1.4,2.6,1.4s.6,0,.9-.1c.2,0,.5-.2.7-.4h0c0-.9.2-1.7.7-2.3.4-.6.9-1,1.5-1.3,0-.1,0-.3,0-.4ZM24.8,14.1c-.4.2-.8.3-1.2.5-.1,0-.3,0-.5.2-.6.2-1.4.6-1.8,1.1-.2.3-.2.6-.2.9,0,0,0,0,0,0,0,.5-.4.9-.9,1,.2.8.5,1.6,1,2.2s1.2,1.2,2,1.2.5,0,.7-.1c0,0,.2,0,.3,0,0-.8.3-1.6.7-2.3.3-.4.6-.7,1-1-.3-.2-.4-.5-.4-.9,0-.5-.1-1-.3-1.5-.1-.4-.3-.8-.6-1.2Z"/>
        </g>
        <path class="cls-2" d="M19.8,16.4c0-2,1.8-2.6,3.3-3.2,1.3-.5,2.4-.9,2.4-1.9-.3-.2-.6-.3-.9-.4-.6-.2-1.3-.2-1.9,0-1.3.3-2.5,1.2-3.1,2.6h0s-.3.7-.2,2.9h.4Z"/>
        <path class="cls-2" d="M25.6,12.8c.3.5.7,1.2,1,2,.2.5.3,1.1.3,1.7h.3c.3-2.2-.1-3.7-1-4.6h0c0,.4-.3.7-.6.9Z"/>
        <path class="cls-2" d="M27.5,18.3c-.4.1-.8.4-1.1.7,0,0-.1.2-.2.3-.3.5-.5,1.2-.5,1.9v.2c0,.7.3,1.4.7,1.9.5.6,1.1.9,1.8.9s1-.2,1.4-.6h0c0,0,.2-.2.3-.3.5-.5.8-1.3.8-2.1s-.3-1.6-.8-2.1c-.5-.6-1.1-.9-1.8-.9s-.5,0-.7,0h0Z"/>
        <path class="cls-2" d="M25,22.1c-.2,0-.4.2-.6.2-.4.1-.7.2-1.1.2s-.8,0-1.2-.2c1.3,1.8,2.4,2.1,3.4,2.4.1,0,.3,0,.5.1h0c.3.1.7.2,1.1.2.1,0,.2,0,.4-.1-.7-.1-1.2-.5-1.7-1-.4-.5-.7-1.1-.8-1.8Z"/>
        <path class="cls-2" d="M22.7,26c-.8-.8-1.4-1.8-1.9-2.7-.3.3-.8.7-1.7.9,0,0,0,0-.1,0-.6.2-1.4.3-2.4.4,0,0-1.8,0-1.3,2.9.2,1,.5,2.1.7,3.2,0,.5.2,1,.3,1.5.1.6.5,1.1,1,1.4.5.4,1.1.7,1.6.6h0c2.6,0,5.5-.4,7.8-1.7s2-1.5,2.5-2.7c-1.1,1.1-2.6,2-4.3,2.4-1,.3-2,.4-3,.3-1-.1-1.9-.5-2.5-1.1-.8-.7-1.3-1.8-1.2-3.3,0-.2.1-.3.3-.3s.3.2.3.4c0,1.3.3,2.2,1,2.8.6.5,1.3.8,2.2.9s.9,0,1.3,0c-.5-2,.7-3.7,1.3-4.4-.7-.2-1.4-.7-2-1.3Z"/>
        <path class="cls-2" d="M19.6,23.2c.6-.3.9-.6,1-.7v-1.3c-.1,0-.2-.2-.3-.3s-.1-.2-.2-.3c0,.8-.2,1.9-.5,2.6Z"/>
        <path class="cls-2" d="M24,31.6c.3,0,.5,0,.8-.2,2-.5,4-1.8,4.7-3.3v-3.5c-.4.2-.8.3-1.3.4-.2.5-.6.7-1,.7-.5,0-1,0-1.4-.2-.1,0-.3,0-.5-.1-1.2-.4-2.5-.8-4.1-3.1v.3c.4.9,1.1,2,1.9,2.9.7.7,1.4,1.2,2.2,1.3v.3s0-.3,0-.3c.2,0,.3.2.3.4,0,0,0,.2-.1.2-.2.2-2.1,2-1.5,4.3Z"/>
      </g>
    </g>
  </g>
</svg>