<svg width="48" height="48" viewBox="0 0 48 48" fill="none" xmlns="http://www.w3.org/2000/svg">
<rect width="48" height="48" rx="24" fill="#F4F4F4"/>
<path d="M33.75 20C33.75 20.41 33.41 20.75 33 20.75H15C14.59 20.75 14.25 20.41 14.25 20C14.25 19.59 14.59 19.25 15 19.25H16.02L16.4 17.44C16.76 15.69 17.51 14.08 20.49 14.08H27.51C30.49 14.08 31.24 15.69 31.6 17.44L31.98 19.25H33C33.41 19.25 33.75 19.59 33.75 20Z" fill="#04615C"/>
<path d="M34.18 25.66C34.03 24.01 33.59 22.25 30.38 22.25H17.62C14.41 22.25 13.98 24.01 13.82 25.66L13.26 31.75C13.19 32.51 13.44 33.27 13.96 33.84C14.49 34.42 15.24 34.75 16.04 34.75H17.92C19.54 34.75 19.85 33.82 20.05 33.21L20.25 32.61C20.48 31.92 20.54 31.75 21.44 31.75H26.56C27.46 31.75 27.49 31.85 27.75 32.61L27.95 33.21C28.15 33.82 28.46 34.75 30.08 34.75H31.96C32.75 34.75 33.51 34.42 34.04 33.84C34.56 33.27 34.81 32.51 34.74 31.75L34.18 25.66ZM21 27.75H18C17.59 27.75 17.25 27.41 17.25 27C17.25 26.59 17.59 26.25 18 26.25H21C21.41 26.25 21.75 26.59 21.75 27C21.75 27.41 21.41 27.75 21 27.75ZM30 27.75H27C26.59 27.75 26.25 27.41 26.25 27C26.25 26.59 26.59 26.25 27 26.25H30C30.41 26.25 30.75 26.59 30.75 27C30.75 27.41 30.41 27.75 30 27.75Z" fill="#04615C"/>
</svg>
