<?xml version="1.0" encoding="UTF-8"?>
<svg id="Layer_1" data-name="Layer 1" xmlns="http://www.w3.org/2000/svg" version="1.1" viewBox="0 0 48 48">
  <defs>
    <style>
      .cls-1 {
        fill: #f4f4f4;
      }

      .cls-1, .cls-2 {
        stroke-width: 0px;
      }

      .cls-2 {
        fill: #04615c;
      }
    </style>
  </defs>
  <path class="cls-1" d="M24,0h0c13.3,0,24,10.7,24,24h0c0,13.3-10.7,24-24,24h0C10.7,48,0,37.3,0,24h0C0,10.7,10.7,0,24,0Z"/>
  <g id="Page-1">
    <g id="_034---Customs-Officer" data-name=" 034---Customs-Officer">
      <path id="Shape" class="cls-2" d="M18.3,31.2l1.1.8,1.1-.8v-2h-2.2v2h0Z"/>
      <path id="Shape-2" class="cls-2" d="M27.1,26.7h-8.9c-1.6,0-2.9,1.3-2.9,2.9v3.6c0,.6.5,1.1,1.1,1.1h4.2c0,0,.2,0,.3-.1l6.5-6.8c0-.1.1-.3,0-.4,0-.1-.2-.2-.3-.2h0,0ZM21.1,31.2c0,.2-.1.4-.3.6l-1.1.8c-.3.2-.6.2-.9,0l-1.1-.8c-.2-.1-.3-.3-.3-.6v-2c0-.4.3-.7.7-.7h2.2c.4,0,.7.3.7.7v2h0Z"/>
      <path id="Shape-3" class="cls-2" d="M30,26.7c-.1,0-.2,0-.3.1l-6.5,6.8c0,.1-.1.3,0,.4s.2.2.3.2h8.1c.6,0,1.1-.5,1.1-1.1v-3.6c0-1.5-1.2-2.7-2.7-2.9h0ZM31.5,32.8c0,.2-.2.4-.4.4h-1.8c-.2,0-.4-.2-.4-.4s.2-.4.4-.4h1.4v-1.1c0-.2.2-.4.4-.4s.4.2.4.4v1.4Z"/>
      <path id="Shape-4" class="cls-2" d="M28.7,20.2c0,2.6-2.1,4.7-4.7,4.7s-4.7-2.1-4.7-4.7,0-.7.1-1.1c.5.2,1,.3,1.5.4,1,.2,2,.3,3.1.3s2-.1,3.1-.3c.5,0,1-.2,1.5-.4,0,.4.1.7.1,1.1ZM29.1,17c-1.2-.7-3.8-.8-5.1-.8s-.5,0-1.1,0c-.1,0-.2,0-.3.2,0,.1,0,.3,0,.4s.2.2.3.2c.6,0,1.1,0,1.1,0,2.6,0,5,.5,5,1s0,.5-2.1.9c-1.9.4-3.9.4-5.8,0-2.1-.4-2.1-.9-2.1-.9,0-.2.5-.5,2.2-.8.2,0,.3-.2.3-.4s-.2-.3-.4-.3c-.7,0-1.5.3-2.2.6-.8-.4-.7-.8-.6-1,.4-1.1,3.1-1.9,5.3-2.2.2,0,.5,0,.7,0,2.2.4,4.9,1.2,5.3,2.2,0,.2.2.6-.6,1h0Z"/>
    </g>
  </g>
</svg>