<?xml version="1.0" encoding="UTF-8"?>
<svg id="Layer_1" data-name="Layer 1" xmlns="http://www.w3.org/2000/svg" version="1.1" viewBox="0 0 48 48">
  <defs>
    <style>
      .cls-1 {
        fill: #f4f4f4;
      }

      .cls-1, .cls-2 {
        stroke-width: 0px;
      }

      .cls-2 {
        fill: #04615c;
        fill-rule: evenodd;
      }
    </style>
  </defs>
  <path class="cls-1" d="M24,0h0c13.3,0,24,10.7,24,24h0c0,13.3-10.7,24-24,24h0C10.7,48,0,37.3,0,24h0C0,10.7,10.7,0,24,0Z"/>
  <path class="cls-2" d="M33.2,17c.4,0,.7-.2,1-.4v6.9c0,.3-.2.5-.5.5h-6.9c-.3,0-.5-.2-.5-.5v-2.4l1-.3v1.4c0,.2.2.3.3.3h5.1c.2,0,.3-.2.3-.3v-5.2h0ZM27.5,15.4c0-.2.2-.3.3-.3h2.4c0-.2-.1-.5-.1-.7s0-.4,0-.6h-3.2c-.3,0-.5.2-.5.5v4.7l1-.2v-3.2h0ZM32.1,32.8h-.8v-6.4h-1.9v6.4h-.8c-.4,0-.7.3-.7.7v.4h5v-.4c0-.4-.3-.7-.7-.7h0ZM14.7,32.6h-.3c-.2,0-.3.2-.3.3v.6c0,.2.2.3.3.3h.3c.2,0,.3-.2.3-.3v-.6c0-.2-.2-.3-.3-.3ZM17.5,32.6h-.3c-.2,0-.3.2-.3.3v.6c0,.2.2.3.3.3h.3c.2,0,.3-.2.3-.3v-.6c0-.2-.2-.3-.3-.3ZM18.8,25.5v5.8c0,.5-.4.9-.9.9h-3.8c-.5,0-.9-.4-.9-.9v-5.8c0-.5.4-.9.9-.9h0v-3c0-.2,0-.5.3-.6s.4-.3.6-.3h2.1c.2,0,.5,0,.6.3s.3.4.3.6v3h0c.5,0,.9.4.9.9h0ZM14.7,24.6h2.6v-3c0,0,0-.1,0-.2s-.1,0-.2,0h-2.1c0,0-.1,0-.2,0,0,0,0,.1,0,.2v3h0ZM17.9,31.2c0-.2-.1-.3-.3-.3h-3.3c-.2,0-.3.1-.3.3s.1.3.3.3h3.3c.2,0,.3-.1.3-.3ZM17.9,27.3c0-.3-.1-.5-.3-.7s-.4-.3-.7-.3h-2c-.3,0-.5.1-.7.3s-.3.4-.3.7v2.9c0,.2.1.3.3.3s.3-.1.3-.3v-2.9c0,0,0-.2.1-.2,0,0,.1-.1.2-.1h2c0,0,.2,0,.2.1s.1.1.1.2v2.9c0,.2.1.3.3.3s.3-.1.3-.3v-2.9h0ZM27.2,24.9c0,.4.4.8.8.8h4.7c.4,0,.8-.4.8-.8v-.5h-6.3v.5ZM30.7,14.3c0-1.1.9-2.1,2.1-2.1s2.1.9,2.1,2.1-.9,2.1-2.1,2.1-2.1-.9-2.1-2.1ZM31.6,14.3l.5.8c.1.2.3.2.5,0l1.3-1.3c.1-.1.1-.3,0-.4s-.3-.1-.4,0l-1,1-.3-.5c0-.1-.3-.2-.4-.1s-.2.3-.1.4h0ZM31.9,21h-.4c-.2,0-.3.1-.3.3s.1.3.3.3h.4c.2,0,.3-.1.3-.3s-.1-.3-.3-.3ZM28.8,21c-.2,0-.3.1-.3.3s.1.3.3.3h.4c.2,0,.3-.1.3-.3s-.1-.3-.3-.3h-.4ZM31.9,17.5h-3.1c-.2,0-.3.1-.3.3s.1.3.3.3h3.1c.2,0,.3-.1.3-.3s-.1-.3-.3-.3ZM30.2,21c-.2,0-.3.1-.3.3s.1.3.3.3h.4c.2,0,.3-.1.3-.3s-.1-.3-.3-.3h-.4ZM28.5,16.7c0,.2.1.3.3.3h1.5c.2,0,.3-.1.3-.3s-.1-.3-.3-.3h-1.5c-.2,0-.3.1-.3.3ZM21.9,17.4c.8,0,1.5-.7,1.5-1.6s-.7-1.6-1.5-1.6-1.5.7-1.5,1.6.7,1.6,1.5,1.6ZM24.9,33.4l-.9-.3c-.4-.1-.6-.5-.6-.9v-7.8h-3.2v1c0,.4,0,.7.2,1l.9,2.4s0,0,0,0l.5,4.8c0,.1.1.2.3.2h2.7c.2,0,.2-.1.2-.2,0,0,0-.2-.1-.3h0ZM20.8,29l-.3-.8v5.6c0,0,0,.2.2.2h.7c0,0,0-.1,0-.2l-.5-4.7h0ZM23.5,21.1l-1.7-.4c-.6-.2-.9-.8-.8-1.4h0c.2-.6.8-.9,1.4-.8l1,.3c-.2-.6-.8-1.1-1.5-1.1s-1.6.7-1.6,1.6v4.4h3.2v-2.6h0ZM21.6,19.5c0,.3,0,.5.3.6l2.4.7c.2,0,.4,0,.6,0l3.3-.9c.3,0,.5-.3.4-.5,0-.2-.2-.3-.4-.3l-3.5.7s0,0-.1,0l-2.4-.6c-.3,0-.5,0-.6.3h0Z"/>
</svg>