<svg width="48" height="48" viewBox="0 0 48 48" fill="none" xmlns="http://www.w3.org/2000/svg">
<rect width="48" height="48" rx="24" fill="#F4F4F4"/>
<path d="M31.96 20.96C31.29 20.22 30.28 19.79 28.88 19.64V18.88C28.88 17.51 28.3 16.19 27.28 15.27C26.25 14.33 24.91 13.89 23.52 14.02C21.13 14.25 19.12 16.56 19.12 19.06V19.64C17.72 19.79 16.71 20.22 16.04 20.96C15.07 22.04 15.1 23.48 15.21 24.48L15.91 30.05C16.12 32 16.91 34 21.21 34H26.79C31.09 34 31.88 32 32.09 30.06L32.79 24.47C32.9 23.48 32.92 22.04 31.96 20.96ZM23.66 15.41C24.66 15.32 25.61 15.63 26.35 16.3C27.08 16.96 27.49 17.9 27.49 18.88V19.58H20.51V19.06C20.51 17.28 21.98 15.57 23.66 15.41ZM20.42 25.15H20.41C19.86 25.15 19.41 24.7 19.41 24.15C19.41 23.6 19.86 23.15 20.41 23.15C20.97 23.15 21.42 23.6 21.42 24.15C21.42 24.7 20.97 25.15 20.42 25.15ZM27.42 25.15H27.41C26.86 25.15 26.41 24.7 26.41 24.15C26.41 23.6 26.86 23.15 27.41 23.15C27.97 23.15 28.42 23.6 28.42 24.15C28.42 24.7 27.97 25.15 27.42 25.15Z" fill="#04615C"/>
</svg>
