<?xml version="1.0" encoding="UTF-8"?>
<svg id="Layer_1" data-name="Layer 1" xmlns="http://www.w3.org/2000/svg" version="1.1" viewBox="0 0 48 48">
  <defs>
    <style>
      .cls-1 {
        fill: #f4f4f4;
      }

      .cls-1, .cls-2 {
        stroke-width: 0px;
      }

      .cls-2 {
        fill: #05615c;
      }
    </style>
  </defs>
  <path class="cls-1" d="M24,0h0c13.3,0,24,10.7,24,24h0c0,13.3-10.7,24-24,24h0C10.7,48,0,37.3,0,24h0C0,10.7,10.7,0,24,0Z"/>
  <path class="cls-2" d="M24.4,14.2l-2.4,5.6h-2.4c-.4,0-.8,0-1.2.1l1-2.4h0c0,0,0-.2,0-.2,0,0,0-.1,0-.2,1.2-2.7,2.5-3.5,4.8-2.9Z"/>
  <path class="cls-2" d="M31.2,20.1h0c-.6-.2-1.2-.3-1.8-.3h-6.3l2.2-5.2h0c.1,0,.3,0,.4.1l2.2.9c1.2.5,2.1,1,2.6,1.7,0,.1.2.2.2.4,0,.1.2.3.2.4,0,0,0,.2,0,.3.1.5.2,1.1,0,1.7Z"/>
  <path class="cls-2" d="M25,29.7h.2c.3,0,.5-.3.5-.6s-.1-.5-.4-.6l-.4-.2v1.3Z"/>
  <path class="cls-2" d="M30.7,21.5c-.5-.1-.9-.2-1.4-.2h-9.8c-.7,0-1.3.1-1.9.4-1.7.8-3,2.5-3,4.5v2c0,.2,0,.5,0,.7.2,3.2,1.9,4.9,5.1,5.1.2,0,.5,0,.7,0h7.8c3.7,0,5.6-1.8,5.8-5.3,0-.2,0-.4,0-.6v-2c0-2.2-1.5-4.1-3.5-4.7ZM25.7,27.5c.5.2,1.1.5,1.1,1.6s-.7,1.6-1.6,1.6h-.2v.2c0,.3-.2.5-.5.5s-.5-.2-.5-.5v-.2h0c-1,0-1.8-.8-1.8-1.8s.2-.5.5-.5.5.2.5.5c0,.4.3.8.7.8h0v-1.7l-.8-.3c-.5-.2-1.1-.5-1.1-1.6s.7-1.6,1.6-1.6h.2v-.2c0-.3.2-.5.5-.5s.5.2.5.5v.2h0c1,0,1.8.8,1.8,1.8s-.2.5-.5.5-.5-.2-.5-.5c0-.4-.3-.8-.7-.8h0v1.7l.8.3Z"/>
  <path class="cls-2" d="M23.1,26.1c0,.4.1.5.4.6h.4c0,.1,0-1.2,0-1.2h-.2c-.3,0-.6.3-.6.6Z"/>
</svg>