<svg width="48" height="48" viewBox="0 0 48 48" fill="none" xmlns="http://www.w3.org/2000/svg">
<rect width="48" height="48" rx="24" fill="#F4F4F4"/>
<mask id="mask0_1_116" style="mask-type:alpha" maskUnits="userSpaceOnUse" x="12" y="12" width="24" height="24">
<rect x="12" y="12" width="24" height="24" fill="#D9D9D9"/>
</mask>
<g mask="url(#mask0_1_116)">
<path d="M24.0179 17.8924C23.44 17.8924 22.9473 17.6876 22.5397 17.278C22.1321 16.8684 21.9283 16.3746 21.9283 15.7967C21.9283 15.2228 22.1331 14.7311 22.5427 14.3214C22.9523 13.9118 23.444 13.707 24.0179 13.707C24.5918 13.707 25.0836 13.9118 25.4932 14.3214C25.9028 14.7311 26.1076 15.2228 26.1076 15.7967C26.1076 16.3746 25.9038 16.8684 25.4962 17.278C25.0886 17.6876 24.5958 17.8924 24.0179 17.8924ZM28.9522 34V29H24.2272C23.5975 29 23.0609 28.7783 22.6174 28.3348C22.1739 27.8913 21.9522 27.3547 21.9522 26.725V20.9522C21.9522 20.3822 22.154 19.8965 22.5576 19.4948C22.9612 19.0932 23.448 18.8924 24.0179 18.8924C24.402 18.8924 24.7369 18.9729 25.0226 19.134C25.3082 19.295 25.6177 19.5612 25.9511 19.9326C26.8518 20.9728 27.6919 21.6991 28.4715 22.1114C29.251 22.5237 30.1277 22.7462 31.1016 22.7788V24.8744C30.2382 24.8665 29.3575 24.6818 28.4595 24.3204C27.5615 23.959 26.7875 23.5235 26.1375 23.0141V26.3625H28.9522C29.554 26.3625 30.0687 26.5763 30.4962 27.0038C30.9237 27.4313 31.1375 27.946 31.1375 28.5478V34H28.9522ZM21.9522 34.0897C20.5449 34.0897 19.3448 33.5932 18.3519 32.6003C17.359 31.6073 16.8625 30.4072 16.8625 29C16.8625 27.7801 17.2506 26.6998 18.0269 25.7592C18.8032 24.8187 19.7783 24.2357 20.9522 24.0103V26.2516C20.3888 26.485 19.9305 26.8468 19.5775 27.3372C19.2244 27.8276 19.0478 28.3819 19.0478 29C19.0478 29.8094 19.3295 30.4968 19.8929 31.0622C20.4563 31.6276 21.1428 31.9103 21.9522 31.9103C22.5703 31.9103 23.1246 31.7328 23.615 31.3777C24.1054 31.0226 24.4672 30.5634 24.7006 30H26.9478C26.7225 31.1739 26.1385 32.149 25.1959 32.9253C24.2534 33.7015 23.1721 34.0897 21.9522 34.0897Z" fill="#04615C"/>
</g>
</svg>
